<?xml version="1.0" encoding="UTF-8"?><svg xmlns="http://www.w3.org/2000/svg" xmlns:xlink="http://www.w3.org/1999/xlink" contentScriptType="text/ecmascript" width="1440pt" zoomAndPan="magnify" contentStyleType="text/css" viewBox="0 0 1440 809.999993" height="809.999993pt" preserveAspectRatio="xMidYMid meet" version="1.2"><defs><g/></defs><g xml:id="surface1" id="surface1"><g style="fill:rgb(100%,0%,0%);fill-opacity:1;"><g transform="translate(266.973824, 516.299994)"><path style="stroke:none;" d="M 56.484375 -1.6875 L 50.046875 -1.359375 C 49.597656 -1.804688 47.117188 -2.144531 42.609375 -2.375 C 42.160156 -3.269531 40.472656 -4.28125 37.546875 -5.40625 C 36.191406 -5.40625 33.367188 -7.550781 29.078125 -11.84375 C 25.253906 -15 23.226562 -16.800781 23 -17.25 C 22.769531 -18.144531 21.976562 -19.269531 20.625 -20.625 C 19.726562 -21.976562 18.71875 -25.132812 17.59375 -30.09375 C 13.976562 -41.144531 12.054688 -48.359375 11.828125 -51.734375 C 11.609375 -55.117188 11.835938 -59.859375 12.515625 -65.953125 C 11.609375 -67.078125 11.722656 -69.894531 12.859375 -74.40625 C 12.859375 -76.882812 13.191406 -82.519531 13.859375 -91.3125 L 13.859375 -93.34375 L 15.21875 -108.5625 C 14.988281 -113.070312 15.660156 -117.691406 17.234375 -122.421875 C 18.816406 -127.160156 19.945312 -131.5625 20.625 -135.625 C 21.300781 -135.84375 21.976562 -138.769531 22.65625 -144.40625 C 26.039062 -155.007812 28.070312 -160.875 28.75 -162 L 34.15625 -171.46875 C 34.832031 -172.144531 35.847656 -173.609375 37.203125 -175.859375 L 47.34375 -189.0625 C 48.695312 -190.632812 51.628906 -192.550781 56.140625 -194.8125 C 58.617188 -197.289062 61.550781 -199.203125 64.9375 -200.546875 C 73.5 -204.160156 80.828125 -206.304688 86.921875 -206.984375 C 89.628906 -204.953125 93.347656 -205.628906 98.078125 -209.015625 C 111.609375 -207.878906 120.679688 -207.3125 125.296875 -207.3125 C 129.921875 -207.3125 134.488281 -206.523438 139 -204.953125 C 145.757812 -203.597656 149.253906 -201.003906 149.484375 -197.171875 C 149.929688 -191.535156 149.140625 -187.25 147.109375 -184.3125 C 145.085938 -181.382812 142.5 -180.144531 139.34375 -180.59375 C 130.09375 -181.945312 122.535156 -182.398438 116.671875 -181.953125 C 110.816406 -181.503906 105.296875 -179.8125 100.109375 -176.875 C 99.660156 -176.65625 98.644531 -176.207031 97.0625 -175.53125 C 93.457031 -173.945312 90.523438 -172.253906 88.265625 -170.453125 C 79.921875 -163.460938 72.144531 -150.273438 64.9375 -130.890625 L 63.921875 -125.140625 C 64.148438 -125.359375 64.207031 -125.296875 64.09375 -124.953125 C 63.976562 -124.617188 63.75 -123.945312 63.40625 -122.9375 C 63.070312 -121.925781 62.847656 -121.082031 62.734375 -120.40625 C 62.617188 -119.726562 62.222656 -118.597656 61.546875 -117.015625 C 59.296875 -110.929688 57.320312 -102.421875 55.625 -91.484375 C 53.9375 -80.546875 53.09375 -71.46875 53.09375 -64.25 C 53.09375 -57.039062 54.332031 -51.296875 56.8125 -47.015625 L 62.234375 -40.921875 C 63.128906 -39.117188 65.832031 -36.976562 70.34375 -34.5 C 72.375 -32.019531 75.421875 -29.539062 79.484375 -27.0625 C 83.085938 -25.476562 89.171875 -27.164062 97.734375 -32.125 C 98.640625 -32.800781 99.546875 -33.59375 100.453125 -34.5 L 108.5625 -39.90625 C 113.519531 -45.09375 116.5625 -48.585938 117.6875 -50.390625 L 121.75 -53.78125 L 123.109375 -64.265625 C 123.109375 -64.484375 123.332031 -65.15625 123.78125 -66.28125 C 124.6875 -69.664062 125.140625 -72.597656 125.140625 -75.078125 L 125.140625 -79.8125 L 124.453125 -90.296875 C 124.679688 -93.453125 124.234375 -95.59375 123.109375 -96.71875 C 119.722656 -96.71875 113.410156 -93.5625 104.171875 -87.25 C 103.492188 -86.800781 101.96875 -86.632812 99.59375 -86.75 C 97.226562 -86.863281 95.367188 -87.257812 94.015625 -87.9375 C 90.179688 -90.1875 88.265625 -93.003906 88.265625 -96.390625 C 88.265625 -99.773438 88.601562 -102.476562 89.28125 -104.5 C 89.957031 -106.53125 90.351562 -107.882812 90.46875 -108.5625 C 90.582031 -109.238281 91.03125 -109.96875 91.8125 -110.75 C 92.601562 -111.539062 93.675781 -112.390625 95.03125 -113.296875 C 96.382812 -114.203125 98.019531 -115.613281 99.9375 -117.53125 C 101.851562 -119.445312 105.851562 -121.867188 111.9375 -124.796875 C 118.03125 -127.722656 124.910156 -129.1875 132.578125 -129.1875 C 140.242188 -129.1875 146.441406 -126.988281 151.171875 -122.59375 C 155.910156 -118.195312 159.972656 -110.023438 163.359375 -98.078125 C 163.804688 -95.367188 164.03125 -89.445312 164.03125 -80.3125 C 164.03125 -71.1875 161.890625 -54.222656 157.609375 -29.421875 C 156.472656 -18.597656 155.171875 -11.328125 153.703125 -7.609375 C 152.242188 -3.890625 151.285156 -0.0546875 150.828125 3.890625 C 150.378906 7.835938 149.984375 10.597656 149.640625 12.171875 C 149.304688 13.753906 149.082031 14.828125 148.96875 15.390625 C 148.863281 15.953125 148.753906 16.457031 148.640625 16.90625 C 148.523438 17.363281 148.128906 18.660156 147.453125 20.796875 C 146.773438 22.941406 145.082031 25.140625 142.375 27.390625 C 139.675781 29.648438 137.195312 30.890625 134.9375 31.109375 C 127.5 29.753906 122.539062 27.390625 120.0625 24.015625 C 119.15625 22.660156 117.910156 20.175781 116.328125 16.5625 C 114.753906 12.957031 113.910156 9.859375 113.796875 7.265625 C 113.691406 4.671875 113.691406 2.921875 113.796875 2.015625 C 113.910156 1.117188 114.304688 -1.632812 114.984375 -6.25 C 115.660156 -10.875 116.113281 -14.425781 116.34375 -16.90625 L 107.203125 -5.75 C 107.203125 -4.84375 105.175781 -3.265625 101.125 -1.015625 C 99.320312 0.785156 94.132812 1.460938 85.5625 1.015625 L 82.515625 1.015625 C 82.296875 2.816406 77 2.703125 66.625 0.671875 C 65.269531 0.898438 61.890625 0.113281 56.484375 -1.6875 Z M 56.484375 -1.6875 "/></g></g><g style="fill:rgb(100%,0%,0%);fill-opacity:1;"><g transform="translate(442.840086, 516.299994)"><path style="stroke:none;" d="M 77.109375 -99.765625 C 75.535156 -108.785156 71.140625 -112.957031 63.921875 -112.28125 C 59.859375 -112.050781 56.363281 -109.347656 53.4375 -104.171875 C 49.375 -96.273438 47.625 -86.066406 48.1875 -73.546875 C 48.757812 -61.035156 49.664062 -52.019531 50.90625 -46.5 C 52.144531 -40.976562 54.34375 -36.1875 57.5 -32.125 C 59.300781 -28.96875 62.003906 -27.503906 65.609375 -27.734375 C 71.921875 -27.734375 76.546875 -33.03125 79.484375 -43.625 L 82.1875 -51.75 C 83.3125 -52.875 83.535156 -54 82.859375 -55.125 C 85.109375 -60.757812 86.347656 -67.410156 86.578125 -75.078125 C 84.328125 -76.660156 82.972656 -78.128906 82.515625 -79.484375 C 81.171875 -83.316406 80.5 -85.90625 80.5 -87.25 C 78.914062 -88.382812 78.007812 -90.53125 77.78125 -93.6875 C 77.5625 -96.84375 77.335938 -98.867188 77.109375 -99.765625 Z M 15.21875 -67.984375 L 16.578125 -85.234375 C 18.148438 -100.785156 22.882812 -114.085938 30.78125 -125.140625 C 38.445312 -134.378906 49.269531 -139.113281 63.25 -139.34375 L 65.265625 -139.34375 C 78.347656 -139.34375 87.820312 -136.523438 93.6875 -130.890625 C 100 -125.921875 104.675781 -120.503906 107.71875 -114.640625 C 110.757812 -108.785156 112.726562 -104.503906 113.625 -101.796875 C 114.53125 -99.085938 115.097656 -95.144531 115.328125 -89.96875 C 115.773438 -80.269531 113.859375 -74.742188 109.578125 -73.390625 C 112.734375 -51.972656 110.816406 -34.953125 103.828125 -22.328125 C 101.578125 -17.140625 98.304688 -11.5 94.015625 -5.40625 C 90.859375 -1.351562 85.222656 0.898438 77.109375 1.359375 C 68.992188 1.359375 61.945312 0.90625 55.96875 0 C 50 -0.90625 43.40625 -3.78125 36.1875 -8.625 C 28.96875 -13.46875 23.894531 -21.414062 20.96875 -32.46875 C 17.8125 -43.0625 15.894531 -54.898438 15.21875 -67.984375 Z M 15.21875 -67.984375 "/></g></g><g style="fill:rgb(0%,0%,0%);fill-opacity:1;"><g transform="translate(572.364434, 516.299994)"><path style="stroke:none;" d="M 55.125 -69.671875 C 54.894531 -68.765625 54.78125 -66.957031 54.78125 -64.25 C 54.78125 -61.550781 54.554688 -59.1875 54.109375 -57.15625 C 53.660156 -55.125 53.660156 -52.644531 54.109375 -49.71875 C 55.015625 -45.65625 56.929688 -40.691406 59.859375 -34.828125 C 59.859375 -34.160156 61.550781 -32.359375 64.9375 -29.421875 C 65.832031 -29.191406 66.785156 -28.960938 67.796875 -28.734375 C 68.816406 -28.515625 69.664062 -28.234375 70.34375 -27.890625 C 71.019531 -27.554688 72.597656 -27.671875 75.078125 -28.234375 C 77.554688 -28.796875 79.191406 -29.359375 79.984375 -29.921875 C 80.773438 -30.492188 82.410156 -31.796875 84.890625 -33.828125 C 87.367188 -36.984375 90.070312 -39.125 93 -40.25 C 97.289062 -44.300781 101.351562 -47.796875 105.1875 -50.734375 C 108.789062 -51.410156 111.15625 -51.632812 112.28125 -51.40625 C 113.40625 -51.175781 114.644531 -50.273438 116 -48.703125 C 119.15625 -45.097656 120.054688 -40.472656 118.703125 -34.828125 C 116.898438 -28.515625 113.519531 -22.539062 108.5625 -16.90625 C 107.65625 -15.332031 105.960938 -13.867188 103.484375 -12.515625 C 103.035156 -12.066406 102.363281 -11.050781 101.46875 -9.46875 L 95.03125 -3.046875 C 93.675781 -3.046875 92.773438 -2.367188 92.328125 -1.015625 C 91.878906 0.335938 88.945312 2.03125 83.53125 4.0625 C 76.769531 4.0625 70.796875 3.382812 65.609375 2.03125 C 54.335938 -0.445312 46.332031 -3.492188 41.59375 -7.109375 L 35.171875 -11.15625 C 34.722656 -12.0625 32.582031 -13.300781 28.75 -14.875 L 24.34375 -20.296875 L 19.28125 -25.703125 L 15.890625 -31.796875 C 15.210938 -32.691406 14.757812 -34.4375 14.53125 -37.03125 C 14.3125 -39.625 13.976562 -41.820312 13.53125 -43.625 C 13.75 -44.300781 13.859375 -46.78125 13.859375 -51.0625 C 14.316406 -53.09375 14.546875 -55.578125 14.546875 -58.515625 C 14.992188 -59.191406 14.992188 -61.554688 14.546875 -65.609375 L 14.875 -68.65625 L 14.875 -73.390625 C 14.875 -76.992188 15.328125 -80.828125 16.234375 -84.890625 C 17.140625 -88.953125 18.039062 -93.234375 18.9375 -97.734375 C 18.9375 -100.671875 19.273438 -103.265625 19.953125 -105.515625 C 19.273438 -107.546875 19.390625 -112.507812 20.296875 -120.40625 L 20.296875 -122.421875 C 20.296875 -124.679688 20.40625 -126.488281 20.625 -127.84375 L 20.625 -130.203125 L 21.3125 -150.84375 C 21.3125 -151.519531 21.875 -154.445312 23 -159.625 C 23 -162.332031 24.015625 -166.734375 26.046875 -172.828125 C 27.398438 -175.078125 28.078125 -176.992188 28.078125 -178.578125 C 28.078125 -179.703125 28.410156 -181.953125 29.078125 -185.328125 C 30.210938 -186.679688 31.003906 -189.726562 31.453125 -194.46875 C 31.679688 -194.46875 32.242188 -196.945312 33.140625 -201.90625 C 33.140625 -204.613281 34.378906 -207.65625 36.859375 -211.03125 C 37.316406 -212.382812 39.347656 -213.96875 42.953125 -215.78125 L 43.296875 -215.78125 C 44.191406 -216.226562 47.570312 -216.789062 53.4375 -217.46875 C 56.144531 -217.46875 59.640625 -216.566406 63.921875 -214.765625 C 65.046875 -214.765625 68.203125 -213.070312 73.390625 -209.6875 C 76.097656 -206.53125 75.304688 -199.316406 71.015625 -188.046875 C 71.015625 -186.015625 70.113281 -182.96875 68.3125 -178.90625 C 68.3125 -176.875 67.972656 -174.507812 67.296875 -171.8125 C 67.296875 -169.78125 65.882812 -161.71875 63.0625 -147.625 C 60.25 -133.53125 57.601562 -107.546875 55.125 -69.671875 Z M 55.125 -69.671875 "/></g></g><g style="fill:rgb(0%,0%,0%);fill-opacity:1;"><g transform="translate(694.794398, 516.299994)"><path style="stroke:none;" d="M 77.109375 -99.765625 C 75.535156 -108.785156 71.140625 -112.957031 63.921875 -112.28125 C 59.859375 -112.050781 56.363281 -109.347656 53.4375 -104.171875 C 49.375 -96.273438 47.625 -86.066406 48.1875 -73.546875 C 48.757812 -61.035156 49.664062 -52.019531 50.90625 -46.5 C 52.144531 -40.976562 54.34375 -36.1875 57.5 -32.125 C 59.300781 -28.96875 62.003906 -27.503906 65.609375 -27.734375 C 71.921875 -27.734375 76.546875 -33.03125 79.484375 -43.625 L 82.1875 -51.75 C 83.3125 -52.875 83.535156 -54 82.859375 -55.125 C 85.109375 -60.757812 86.347656 -67.410156 86.578125 -75.078125 C 84.328125 -76.660156 82.972656 -78.128906 82.515625 -79.484375 C 81.171875 -83.316406 80.5 -85.90625 80.5 -87.25 C 78.914062 -88.382812 78.007812 -90.53125 77.78125 -93.6875 C 77.5625 -96.84375 77.335938 -98.867188 77.109375 -99.765625 Z M 15.21875 -67.984375 L 16.578125 -85.234375 C 18.148438 -100.785156 22.882812 -114.085938 30.78125 -125.140625 C 38.445312 -134.378906 49.269531 -139.113281 63.25 -139.34375 L 65.265625 -139.34375 C 78.347656 -139.34375 87.820312 -136.523438 93.6875 -130.890625 C 100 -125.921875 104.675781 -120.503906 107.71875 -114.640625 C 110.757812 -108.785156 112.726562 -104.503906 113.625 -101.796875 C 114.53125 -99.085938 115.097656 -95.144531 115.328125 -89.96875 C 115.773438 -80.269531 113.859375 -74.742188 109.578125 -73.390625 C 112.734375 -51.972656 110.816406 -34.953125 103.828125 -22.328125 C 101.578125 -17.140625 98.304688 -11.5 94.015625 -5.40625 C 90.859375 -1.351562 85.222656 0.898438 77.109375 1.359375 C 68.992188 1.359375 61.945312 0.90625 55.96875 0 C 50 -0.90625 43.40625 -3.78125 36.1875 -8.625 C 28.96875 -13.46875 23.894531 -21.414062 20.96875 -32.46875 C 17.8125 -43.0625 15.894531 -54.898438 15.21875 -67.984375 Z M 15.21875 -67.984375 "/></g></g><g style="fill:rgb(0%,0%,0%);fill-opacity:1;"><g transform="translate(824.326704, 516.299994)"><path style="stroke:none;" d="M 24.015625 -112.953125 C 24.015625 -115.890625 25.476562 -118.375 28.40625 -120.40625 C 28.40625 -120.625 28.40625 -120.847656 28.40625 -121.078125 C 28.40625 -122.648438 30.148438 -125.46875 33.640625 -129.53125 C 37.140625 -133.59375 39.113281 -136.070312 39.5625 -136.96875 C 44.53125 -139.90625 47.800781 -141.597656 49.375 -142.046875 C 51.175781 -141.597656 52.414062 -141.375 53.09375 -141.375 L 53.78125 -141.375 C 60.3125 -142.945312 67.804688 -142.71875 76.265625 -140.6875 C 84.722656 -138.664062 90.640625 -135.0625 94.015625 -129.875 C 95.816406 -126.488281 97.625 -121.976562 99.4375 -116.34375 C 102.132812 -108.445312 103.484375 -102.695312 103.484375 -99.09375 C 104.835938 -93.226562 104.953125 -87.816406 103.828125 -82.859375 L 103.484375 -79.484375 C 103.484375 -78.578125 102.921875 -77.671875 101.796875 -76.765625 C 100.671875 -75.867188 99.375 -75.472656 97.90625 -75.578125 C 96.445312 -75.691406 95.148438 -75.128906 94.015625 -73.890625 C 92.890625 -72.648438 90.578125 -72.03125 87.078125 -72.03125 C 83.585938 -72.03125 81.726562 -73.046875 81.5 -75.078125 C 80.832031 -75.304688 79.765625 -76.097656 78.296875 -77.453125 C 76.828125 -78.804688 76.09375 -79.820312 76.09375 -80.5 L 74.40625 -82.859375 C 74.40625 -83.304688 73.953125 -83.984375 73.046875 -84.890625 C 71.023438 -88.953125 70.238281 -92.109375 70.6875 -94.359375 C 71.8125 -100.222656 72.148438 -103.378906 71.703125 -103.828125 C 71.703125 -107.210938 70.570312 -110.59375 68.3125 -113.96875 C 68.09375 -114.195312 67.695312 -114.367188 67.125 -114.484375 C 66.5625 -114.597656 65.832031 -114.765625 64.9375 -114.984375 C 64.488281 -116.566406 64.035156 -117.359375 63.578125 -117.359375 C 62.003906 -116.910156 60.316406 -115.671875 58.515625 -113.640625 C 55.359375 -104.847656 53.441406 -98.984375 52.765625 -96.046875 L 50.734375 -75.421875 L 50.734375 -59.859375 C 51.179688 -51.742188 52.082031 -46.785156 53.4375 -44.984375 C 53.4375 -44.078125 53.882812 -42.5 54.78125 -40.25 C 55.007812 -37.3125 57.378906 -32.125 61.890625 -24.6875 L 63.578125 -22.65625 C 64.703125 -19.5 66.617188 -17.921875 69.328125 -17.921875 C 72.035156 -17.921875 75.867188 -21.078125 80.828125 -27.390625 C 80.609375 -28.066406 82.078125 -30.773438 85.234375 -35.515625 C 88.390625 -39.796875 93.347656 -41.484375 100.109375 -40.578125 C 103.035156 -40.128906 104.5 -38.441406 104.5 -35.515625 C 104.726562 -33.484375 104.050781 -28.410156 102.46875 -20.296875 C 100.21875 -18.035156 99.09375 -15.78125 99.09375 -13.53125 C 97.507812 -9.46875 96.71875 -7.210938 96.71875 -6.765625 C 96.050781 -6.765625 95.378906 -6.425781 94.703125 -5.75 L 93 -2.375 C 92.101562 -2.375 91.539062 -1.921875 91.3125 -1.015625 C 88.832031 1.910156 87.140625 3.375 86.234375 3.375 C 85.566406 4.050781 83.765625 4.390625 80.828125 4.390625 C 76.546875 6.203125 73.390625 7.109375 71.359375 7.109375 L 65.609375 7.4375 L 61.890625 6.09375 L 58.84375 5.75 C 56.132812 4.625 54.046875 4.113281 52.578125 4.21875 C 51.117188 4.332031 50.050781 4.21875 49.375 3.875 C 48.695312 3.539062 47.796875 2.925781 46.671875 2.03125 C 43.960938 -0.226562 42.210938 -1.359375 41.421875 -1.359375 C 40.640625 -1.359375 39.347656 -2.03125 37.546875 -3.375 C 35.734375 -3.832031 34.265625 -4.625 33.140625 -5.75 L 31.796875 -9.125 C 32.242188 -10.707031 32.015625 -11.613281 31.109375 -11.84375 C 28.179688 -11.84375 26.492188 -12.40625 26.046875 -13.53125 L 24.015625 -16.234375 C 24.015625 -18.035156 23.113281 -20.40625 21.3125 -23.34375 L 17.25 -35.515625 C 16.800781 -35.960938 16.800781 -36.75 17.25 -37.875 L 17.25 -43.96875 L 13.1875 -70.34375 L 13.1875 -75.078125 C 15.21875 -82.515625 16.234375 -86.347656 16.234375 -86.578125 C 16.003906 -91.535156 17.128906 -95.929688 19.609375 -99.765625 C 19.609375 -104.054688 21.078125 -108.453125 24.015625 -112.953125 Z M 24.015625 -112.953125 "/></g></g><g style="fill:rgb(0%,0%,0%);fill-opacity:1;"><g transform="translate(946.080299, 516.299994)"><path style="stroke:none;" d="M 80.5 -97.0625 C 80.269531 -102.019531 79.140625 -105.796875 77.109375 -108.390625 C 75.078125 -110.984375 71.359375 -112.503906 65.953125 -112.953125 C 64.367188 -111.828125 62.28125 -108.050781 59.6875 -101.625 C 57.09375 -95.195312 55.457031 -88.378906 54.78125 -81.171875 C 52.53125 -70.347656 51.40625 -59.523438 51.40625 -48.703125 C 51.632812 -37.648438 53.4375 -29.53125 56.8125 -24.34375 C 57.269531 -23.445312 57.722656 -23.113281 58.171875 -23.34375 C 59.296875 -23.34375 61.097656 -25.59375 63.578125 -30.09375 C 75.523438 -51.738281 81.164062 -74.0625 80.5 -97.0625 Z M 90.984375 -32.46875 L 85.90625 -19.28125 C 85.90625 -18.820312 82.632812 -13.972656 76.09375 -4.734375 C 74.0625 -0.453125 70.285156 1.910156 64.765625 2.359375 C 59.242188 2.816406 53.890625 2.253906 48.703125 0.671875 C 41.710938 -1.804688 36.410156 -4.734375 32.796875 -8.109375 C 29.191406 -11.492188 25.640625 -17.1875 22.140625 -25.1875 C 18.648438 -33.195312 16.796875 -39.796875 16.578125 -44.984375 C 15.441406 -52.421875 14.875 -57.15625 14.875 -59.1875 L 14.875 -67.296875 C 14.875 -75.421875 15.210938 -80.15625 15.890625 -81.5 C 16.117188 -82.40625 16.6875 -84.773438 17.59375 -88.609375 C 18.71875 -98.078125 21.421875 -107.097656 25.703125 -115.671875 C 34.046875 -132.128906 42.613281 -140.582031 51.40625 -141.03125 L 53.09375 -141.03125 C 53.550781 -140.800781 54.226562 -140.6875 55.125 -140.6875 L 59.53125 -140.6875 C 67.414062 -140.007812 72.257812 -139.332031 74.0625 -138.65625 C 77.445312 -137.757812 80.378906 -137.3125 82.859375 -137.3125 L 91.65625 -135.625 C 94.363281 -135.84375 97.914062 -135.273438 102.3125 -133.921875 C 106.707031 -132.578125 109.070312 -131.566406 109.40625 -130.890625 C 109.75 -130.210938 110.367188 -127.726562 111.265625 -123.4375 C 112.171875 -119.15625 112.789062 -116.054688 113.125 -114.140625 C 113.46875 -112.222656 113.75 -110.25 113.96875 -108.21875 C 115.78125 -91.757812 118.710938 -76.429688 122.765625 -62.234375 C 122.992188 -61.554688 123.21875 -60.539062 123.4375 -59.1875 C 123.664062 -57.832031 124.457031 -55.179688 125.8125 -51.234375 C 127.164062 -47.285156 128.179688 -43.957031 128.859375 -41.25 C 129.535156 -38.550781 130.773438 -34.945312 132.578125 -30.4375 C 133.929688 -27.050781 135.957031 -23.101562 138.65625 -18.59375 C 143.625 -11.601562 141.035156 -6.195312 130.890625 -2.375 C 129.535156 -1.914062 127.164062 -1.6875 123.78125 -1.6875 C 123.101562 -1.6875 120.960938 -2.816406 117.359375 -5.078125 C 115.097656 -5.078125 112.957031 -6.316406 110.9375 -8.796875 L 108.21875 -9.46875 C 106.644531 -11.050781 105.296875 -11.84375 104.171875 -11.84375 C 103.710938 -12.289062 99.648438 -21.421875 91.984375 -39.234375 C 91.316406 -36.753906 90.984375 -34.5 90.984375 -32.46875 Z M 90.984375 -32.46875 "/></g></g><g style="fill:rgb(0%,0%,0%);fill-opacity:1;"><g transform="translate(1091.846392, 516.299994)"><path style="stroke:none;" d="M 26.375 -180.9375 L 28.75 -200.890625 L 29.078125 -211.375 C 29.078125 -214.3125 29.644531 -216.566406 30.78125 -218.140625 L 34.15625 -222.875 C 40.25 -227.613281 44.195312 -230.316406 46 -230.984375 C 47.800781 -231.660156 50.445312 -231.601562 53.9375 -230.8125 C 57.4375 -230.03125 59.523438 -229.300781 60.203125 -228.625 L 63.921875 -225.578125 C 65.953125 -224.453125 66.96875 -222.648438 66.96875 -220.171875 C 68.09375 -218.816406 68.429688 -217.800781 67.984375 -217.125 C 66.628906 -215.550781 64.375 -202.25 61.21875 -177.21875 L 58.515625 -131.21875 L 56.8125 -122.09375 C 56.8125 -119.15625 56.925781 -117.460938 57.15625 -117.015625 L 57.15625 -110.9375 C 56.707031 -106.425781 56.253906 -103.601562 55.796875 -102.46875 C 55.796875 -101.34375 55.570312 -100.101562 55.125 -98.75 C 55.570312 -98.300781 55.796875 -96.554688 55.796875 -93.515625 C 55.796875 -90.472656 55.457031 -88.613281 54.78125 -87.9375 C 54.332031 -84.320312 54.109375 -80.878906 54.109375 -77.609375 C 54.109375 -74.347656 54.390625 -70.96875 54.953125 -67.46875 C 55.515625 -63.976562 55.6875 -60.539062 55.46875 -57.15625 L 56.8125 -44.296875 L 56.8125 -39.234375 C 57.269531 -35.171875 57.5 -31.898438 57.5 -29.421875 L 59.1875 -11.84375 L 60.53125 -2.703125 C 61.207031 1.128906 60.925781 4.847656 59.6875 8.453125 C 58.445312 12.054688 56.585938 14.3125 54.109375 15.21875 C 47.117188 18.144531 39.453125 16.226562 31.109375 9.46875 L 28.40625 9.46875 C 26.832031 7.664062 25.59375 5.1875 24.6875 2.03125 C 22.882812 1.125 22.09375 -0.453125 22.3125 -2.703125 C 22.539062 -4.960938 22.09375 -6.992188 20.96875 -8.796875 C 19.84375 -10.597656 19.28125 -12.175781 19.28125 -13.53125 C 19.28125 -16.457031 19.050781 -19.050781 18.59375 -21.3125 L 18.9375 -24.015625 C 18.257812 -24.691406 17.921875 -25.707031 17.921875 -27.0625 L 17.25 -33.140625 L 17.25 -35.84375 C 17.25 -37.65625 17.191406 -38.894531 17.078125 -39.5625 C 16.960938 -40.238281 17.242188 -41.367188 17.921875 -42.953125 C 17.242188 -43.847656 17.132812 -47.117188 17.59375 -52.765625 C 18.9375 -70.117188 19.609375 -82.066406 19.609375 -88.609375 L 19.953125 -96.71875 L 19.953125 -106.53125 C 20.179688 -111.945312 20.347656 -118.820312 20.453125 -127.15625 C 20.566406 -135.5 20.960938 -140.007812 21.640625 -140.6875 L 21.3125 -143.734375 C 21.3125 -149.148438 22.15625 -156.535156 23.84375 -165.890625 C 25.53125 -175.242188 26.375 -180.257812 26.375 -180.9375 Z M 26.375 -180.9375 "/></g></g></g></svg>